<?xml version="1.0" encoding="UTF-8"?>
<!-- Generator: Adobe Illustrator 19.0.0, SVG Export Plug-In . SVG Version: 6.00 Build 0)  -->
<svg width="1413" height="511.89" version="1.1" viewBox="0 0 1413 511.89" xml:space="preserve" xmlns="http://www.w3.org/2000/svg" xmlns:cc="http://creativecommons.org/ns#" xmlns:dc="http://purl.org/dc/elements/1.1/" xmlns:rdf="http://www.w3.org/1999/02/22-rdf-syntax-ns#"><metadata><rdf:RDF><cc:Work rdf:about=""><dc:format>image/svg+xml</dc:format><dc:type rdf:resource="http://purl.org/dc/dcmitype/StillImage"/><dc:title/></cc:Work></rdf:RDF></metadata><defs><linearGradient id="linearGradient1052" x1="481.33" x2="1437.9" y1="313.21" y2="307.79" gradientUnits="userSpaceOnUse"><stop offset="0"/><stop stop-color="#6b6b6b" offset="1"/></linearGradient></defs>
<g transform="translate(9.7299e-5 -.059)"><path d="m511.95 256c0 13.602-1.066 26.952-3.113 39.979-19.19 122.36-125.08 215.96-252.83 215.96s-233.64-93.601-252.83-215.96c-2.048-13.026-3.113-26.377-3.113-39.979 0-34.119 6.675-66.691 18.804-96.464 4.753-11.679 10.353-22.941 16.715-33.69 5.965-10.081 12.599-19.713 19.849-28.843 5.255-6.623 10.833-12.985 16.715-19.044 9.068-9.371 18.846-18.041 29.251-25.939 10.53-8.002 21.708-15.2 33.429-21.51 4.785-2.58 9.663-5.014 14.625-7.281 10.76-4.941 21.927-9.151 33.429-12.567 10.52-3.134 21.332-5.61 32.385-7.375 5.516-0.888 11.084-1.588 16.715-2.11 7.908-0.742 15.921-1.118 24.027-1.118 1.4 0 2.789 0.01 4.179 0.042 16.077 0.251 31.789 1.985 47.01 5.077 5.286 1.076 10.509 2.309 15.67 3.709 11.481 3.092 22.648 6.968 33.429 11.575 3.521 1.494 7.01 3.071 10.447 4.732 5.693 2.727 11.261 5.673 16.715 8.807 11.763 6.769 22.941 14.448 33.429 22.941 5.787 4.68 11.366 9.6 16.715 14.761 5.464 5.265 10.687 10.77 15.67 16.495 12.933 14.876 24.174 31.277 33.429 48.88 18.676 35.527 29.248 75.997 29.248 118.92z" fill="#2d577a"/><path d="m508.84 295.98c-4.398 28.091-13.382 54.657-26.137 78.935-9.256 17.603-20.496 33.993-33.429 48.88-4.983 5.735-10.206 11.241-15.67 16.506-5.349 5.161-10.927 10.091-16.715 14.772-10.488 8.483-21.666 16.161-33.429 22.93-5.453 3.134-11.021 6.08-16.715 8.807-3.437 1.661-6.916 3.238-10.447 4.732-10.781 4.596-21.938 8.483-33.429 11.575-5.161 1.4-10.384 2.633-15.67 3.709-15.221 3.092-30.932 4.826-47.01 5.077-1.389 0.031-2.779 0.042-4.179 0.042-8.107 0-16.119-0.376-24.027-1.107-5.631-0.533-11.199-1.233-16.715-2.121-11.053-1.765-21.854-4.241-32.385-7.375-11.502-3.416-22.659-7.626-33.429-12.567-4.962-2.277-9.841-4.701-14.625-7.281-11.721-6.31-22.899-13.508-33.429-21.51-10.405-7.898-20.183-16.579-29.251-25.939-5.881-6.069-11.46-12.431-16.715-19.055-7.25-9.12-13.884-18.762-19.849-28.833-6.362-10.76-11.961-22.022-16.715-33.711-7.29-17.897-12.607-36.815-15.689-56.465z" fill="#af5454"/><g fill="#37888e"><path d="m482.7 137.08v237.84c-9.256 17.603-20.496 33.993-33.429 48.88v-335.6c12.933 14.876 24.174 31.277 33.429 48.88z"/><path d="m356.29 20.46v471.08c-10.781 4.596-21.938 8.483-33.429 11.575v-494.23c11.481 3.092 22.648 6.968 33.429 11.575z"/><path d="m134.83 30.51v450.98c-11.721-6.31-22.899-13.508-33.429-21.51v-407.96c10.529-8.002 21.707-15.2 33.429-21.509z"/><path d="m182.88 10.661v490.68c-11.502-3.416-22.659-7.626-33.429-12.567v-465.54c10.76-4.941 21.927-9.151 33.429-12.567z"/><path d="m433.6 71.701v368.6c-5.349 5.161-10.927 10.091-16.715 14.772v-398.13c5.788 4.68 11.367 9.6 16.715 14.761z"/><path d="m35.582 125.85v260.31c-6.362-10.76-11.961-22.022-16.715-33.711v-192.91c4.754-11.679 10.353-22.941 16.715-33.69z"/><path d="m72.146 77.958v356.08c-5.881-6.069-11.46-12.431-16.715-19.055v-317.98c5.255-6.623 10.833-12.985 16.715-19.044z"/><path d="m383.46 33.999v444c-5.453 3.134-11.021 6.08-16.715 8.807v-461.62c5.694 2.727 11.262 5.673 16.715 8.807z"/><path d="m231.98 1.175v509.66c-5.631-0.533-11.199-1.233-16.715-2.121v-505.43c5.516-0.888 11.084-1.588 16.715-2.111z"/><path d="m307.2 5.177v501.65c-15.221 3.092-30.932 4.826-47.01 5.077v-511.8c16.077 0.251 31.789 1.985 47.01 5.078z"/></g><g fill="#988">
	<path d="m457.69 413.6c-46.853 59.87-119.77 98.345-201.68 98.345s-154.83-38.475-201.68-98.345c7.198-27.997 20.925-53.696 39.603-75.174 31.925-36.72 78.329-61.144 131.4-63.829 20.455-1.034 40.909-1.034 61.364 0 53.069 2.685 99.473 27.109 131.4 63.829 18.678 21.478 32.405 47.177 39.603 75.174z"/>
	<path d="m511.95 97.968c-2.809-17.506-17.732-30.716-27.137-37.455-2.653-1.901-1.703-6.054 1.514-6.616l5.624-0.983c3.28-0.574 4.168-4.847 1.402-6.7-26.275-17.608-75.351-14.534-75.351-14.534-47.629 0-126.09 39.172-124.96 87.056 1.061 45.094 77.82 81.871 122.91 82.934 47.885 1.127 87.057-37.353 87.057-84.982 0-3.634-0.233-7.214-0.679-10.728-0.342-2.691 2.235-4.814 4.809-3.956 2.605 0.866 5.246-1.325 4.811-4.036z"/>
</g><path d="m460.51 122.75a48.566 48.566 0 0 1-48.566 48.566 48.566 48.566 0 0 1-48.566-48.566 48.566 48.566 0 0 1 48.566-48.566 48.566 48.566 0 0 1 48.566 48.566z" fill="#665b5b"/><path d="m0.047 97.968c2.809-17.506 17.732-30.716 27.137-37.455 2.653-1.901 1.703-6.054-1.514-6.616l-5.624-0.983c-3.28-0.574-4.168-4.847-1.402-6.7 26.276-17.609 75.351-14.535 75.351-14.535 47.629 0 126.09 39.172 124.96 87.056-1.061 45.094-77.82 81.871-122.91 82.934-47.885 1.127-87.057-37.353-87.057-84.982 0-3.634 0.233-7.214 0.679-10.728 0.342-2.691-2.235-4.814-4.809-3.956-2.604 0.867-5.245-1.324-4.811-4.035z" fill="#807272"/><path d="m148.62 122.75a48.566 48.566 0 0 1-48.566 48.566 48.566 48.566 0 0 1-48.566-48.566 48.566 48.566 0 0 1 48.566-48.566 48.566 48.566 0 0 1 48.566 48.566z" fill="#665b5b"/><path d="m418.08 338.42c-31.925-36.72-78.329-61.144-131.4-63.829-11.272-0.575-22.544-0.815-33.805-0.752 0.209-0.01 0.407-0.01 0.616-0.021-0.742 0.01-1.494 0.021-2.236 0.021-1.327 0.01-2.653 0.021-3.98 0.042-1.264 0.021-2.528 0.052-3.792 0.073-1.191 0.021-2.382 0.042-3.573 0.073-1.316 0.042-2.643 0.084-3.959 0.125-1.118 0.042-2.246 0.073-3.364 0.115-2.424 0.094-4.847 0.199-7.271 0.324-84.137 4.252-151.5 63.15-171 139 18.449 23.578 40.951 43.834 66.441 59.734-0.721-13.863-0.397-27.506 0.867-40.752 3.37-35.24 34.516-60.928 69.484-58.52 1.888 0.13 3.617 1.113 4.685 2.673l14.283 20.879c2.91 4.255 9.248 4.066 11.901-0.354l6.431-10.717c2.455-4.091 8.43-3.95 10.689 0.252l16.027 29.812c3.045 5.663 11.456 4.654 13.074-1.569l7.117-27.373c1.196-4.601 6.938-6.162 10.299-2.801l6.398 6.398c3.264 3.264 8.727 2.577 11.083-1.392l7.276-12.26c0.993-1.674 2.72-2.769 4.656-2.97 16.03-1.653 32.062-3.972 48.093-6.973 21.289-3.981 40.313-14.407 54.959-29.241z" fill="#807272"/><path d="m284.95 48.898c-19.298-0.976-38.597-0.976-57.895 0-105.24 5.322-182.68 101.25-163.96 204.94 1.003 5.557 2.172 11.113 3.507 16.67 9.609 39.995 41.851 70.783 82.282 78.351 71.414 13.366 142.83 13.366 214.24 0 40.431-7.568 72.673-38.356 82.282-78.351 1.335-5.557 2.504-11.113 3.507-16.67 18.711-103.69-58.729-199.62-163.96-204.94z" fill="#988"/><path d="m296.75 291.45c0-29.04-18.243-92.627-40.747-92.627s-40.747 63.588-40.747 92.627 18.243 52.581 40.747 52.581 40.747-23.542 40.747-52.581z" fill="#665b5b"/><path d="m308.58 275.78c0-29.04-23.542-92.627-52.581-92.627s-52.581 63.588-52.581 92.627 23.541 52.581 52.581 52.581 52.581-23.542 52.581-52.581z" fill="#4d4445"/><path d="m256 328.36c-29.042 0-52.578-23.536-52.578-52.578 0-28.916 23.338-92.077 52.202-92.62-15.983 0.982-28.874 63.808-28.874 92.62 0 29.042 13.1 52.578 29.25 52.578z" fill="#332d2d"/><g fill="#807272">
	<path d="m256 358.89c-35.707 0-71.413-3.343-107.12-10.029-40.428-7.563-72.677-38.35-82.278-78.35-1.337-5.558-2.507-11.115-3.51-16.673-18.71-103.69 58.721-199.61 163.96-204.94 8.859-0.439 17.717-0.689 26.587-0.721-5.526 0.052-11.053 0.303-16.568 0.721-68.812 5.328-119.45 101.25-107.21 204.94 0.658 5.558 1.421 11.115 2.298 16.673 6.278 40 27.36 70.786 53.8 78.35 23.349 6.686 46.697 10.029 70.045 10.029z"/>
	<path d="m339.05 256.28c-13.825 0-25.072-11.247-25.072-25.072 0-11.317 7.626-21.27 18.546-24.208 2.137-0.574 4.331-0.864 6.526-0.864 13.825 0 25.072 11.247 25.072 25.072 0 2.194-0.29 4.388-0.864 6.522-2.937 10.924-12.891 18.55-24.208 18.55z"/>
	<path d="m172.95 256.28c-13.825 0-25.072-11.247-25.072-25.072 0-11.317 7.626-21.27 18.546-24.208 2.137-0.574 4.331-0.864 6.526-0.864 13.825 0 25.072 11.247 25.072 25.072 0 2.194-0.29 4.388-0.864 6.522-2.937 10.924-12.892 18.55-24.208 18.55z"/>
</g><g fill="#0f0f0e">
	<path d="m352.63 225.99c0 1.222-0.167 2.413-0.47 3.541-1.557 5.787-6.832 10.039-13.111 10.039-7.501 0-13.581-6.08-13.581-13.581 0-6.278 4.252-11.554 10.039-13.111 1.128-0.303 2.319-0.47 3.541-0.47 7.502 1e-3 13.582 6.081 13.582 13.582z"/>
	<path d="m186.52 225.98a13.581 13.581 0 0 1-13.581 13.581 13.581 13.581 0 0 1-13.581-13.581 13.581 13.581 0 0 1 13.581-13.581 13.581 13.581 0 0 1 13.581 13.581z"/>
</g><g fill="#e6e6e6">
	<path d="m352.63 225.99c0 1.222-0.167 2.413-0.47 3.541-1.598 0.742-3.395 1.16-5.276 1.16-6.926 0-12.536-5.61-12.536-12.536 0-1.88 0.418-3.677 1.16-5.276 1.128-0.303 2.319-0.47 3.541-0.47 7.501 0 13.581 6.08 13.581 13.581z"/>
	<path d="m186.53 225.99c0 1.222-0.167 2.413-0.47 3.541-1.598 0.742-3.395 1.16-5.276 1.16-6.926 0-12.536-5.61-12.536-12.536 0-1.88 0.418-3.677 1.16-5.276 1.128-0.303 2.319-0.47 3.541-0.47 7.501 0 13.581 6.08 13.581 13.581z"/>
</g><g fill="#988">
	<path d="m99.576 379.95c2.833-4.354 9.69-2.906 10.323 2.25 1.17 9.537-8.213 22.907-19.564 27.232-11.779 4.488 1.859-18.137 9.241-29.482z"/>
	<path d="m102.97 413.32c1.874-4.845 8.883-4.842 10.566 0.072 3.112 9.09-3.312 24.11-13.526 30.682-10.602 6.821-1.924-18.131 2.96-30.754z"/>
</g><g fill="#332d2d">
	<path d="m282.82 281.87a6.79 14.103 0 0 1-6.79 14.103 6.79 14.103 0 0 1-6.79-14.103 6.79 14.103 0 0 1 6.79-14.103 6.79 14.103 0 0 1 6.79 14.103z"/>
	<path d="m242.76 281.87a6.79 14.103 0 0 1-6.79 14.103 6.79 14.103 0 0 1-6.79-14.103 6.79 14.103 0 0 1 6.79-14.103 6.79 14.103 0 0 1 6.79 14.103z"/>
</g></g>
<g fill="#6b6b6b" stroke-width="1.0056" aria-label="AUSTRALIAN"><path d="m551.99 174.29h8.4094l24.027 60.926h-10.126l-6.4358-16.561h-23.512l-6.35 16.561h-10.211zm13.987 37.242-9.7824-26.172-10.126 26.172z"/><path d="m613.76 226.98q4.8054 0 7.9804-1.8878t5.0628-4.8912q1.9736-3.0892 2.7459-6.9507 0.85811-3.9473 0.85811-8.0662v-30.892h9.6966v30.892q0 6.2642-1.4588 11.842-1.4588 5.4919-4.6338 9.6966-3.175 4.1189-8.2378 6.5216-4.977 2.4027-12.014 2.4027-7.2939 0-12.357-2.4885-4.977-2.5743-8.0662-6.779-3.0892-4.2905-4.4622-9.7824t-1.373-11.413v-30.892h9.6108v30.892q0 4.2047 0.7723 8.152 0.8581 3.8615 2.7459 6.9507 1.9736 3.0034 5.1486 4.8912 3.2608 1.802 7.9804 1.802z"/><path d="m687.91 188.62q-0.85811-0.94392-2.4885-1.9736-1.6304-1.1155-3.8615-2.0594-2.1453-0.94392-4.8054-1.5446-2.5743-0.60067-5.3203-0.60067-6.0926 0-9.0101 2.2311-2.8318 2.2311-2.8318 6.1784 0 2.2311 0.85811 3.6898 0.94392 1.373 2.8318 2.4885 1.8878 1.0297 4.7196 1.8878 2.8318 0.7723 6.6074 1.7162 4.6338 1.1155 8.3236 2.4885 3.7757 1.373 6.35 3.3466t3.9473 4.8912q1.4588 2.8318 1.4588 6.9507 0 4.6338-1.802 7.9804-1.7162 3.3466-4.8054 5.4919-3.0034 2.0595-7.0365 3.0892-4.0331 0.94391-8.6669 0.94391-6.9507 0-13.472-2.0594-6.4358-2.1453-11.67-6.1784l4.3764-8.2378q1.1155 1.1155 3.175 2.4885 2.1453 1.373 4.8912 2.5743 2.8318 1.1155 6.0926 1.9736 3.2608 0.77229 6.779 0.77229 5.6635 0 8.7527-1.9736t3.0892-5.8351q0-2.3169-1.2014-3.8615-1.1155-1.5446-3.2608-2.6601-2.1453-1.2014-5.2344-2.1453-3.0892-0.94391-7.0365-1.9736-4.548-1.2014-7.9804-2.4885-3.3466-1.373-5.5777-3.2608t-3.4324-4.3763q-1.1155-2.5743-1.1155-6.1784 0-4.4622 1.7162-7.8946 1.7162-3.5182 4.6338-5.8351 3.0034-2.4027 7.0365-3.604t8.7527-1.2014q6.1784 0 11.413 1.9736 5.2344 1.9736 9.1817 4.8912z"/><path d="m747.53 182.79h-20.251v52.43h-9.6966v-52.43h-20.337v-8.4953h50.285z"/><path d="m754.6 235.22v-60.926h26.516q4.1189 0 7.5513 1.7162 3.5182 1.7162 6.0068 4.548 2.4885 2.7459 3.8615 6.35 1.4588 3.5182 1.4588 7.2081 0 3.0892-0.8581 5.9209-0.85811 2.8318-2.4027 5.2344-1.5446 2.4027-3.7757 4.2047-2.2311 1.7162-4.8912 2.5743l14.33 23.169h-10.898l-13.215-21.195h-14.073v21.195zm9.6108-29.69h16.819q2.0595 0 3.6899-0.8581 1.7162-0.94392 2.9176-2.4885 1.2014-1.6304 1.8878-3.6899 0.68649-2.0595 0.68649-4.3764t-0.85811-4.3763q-0.7723-2.0595-2.1453-3.604-1.2872-1.5446-3.0892-2.4027-1.7162-0.94392-3.604-0.94392h-16.304z"/><path d="m827.17 174.29h8.4094l24.027 60.926h-10.126l-6.4358-16.561h-23.512l-6.35 16.561h-10.211zm13.987 37.242-9.7824-26.172-10.126 26.172z"/><path d="m866.21 235.22v-60.926h9.6108v52.43h32.694v8.4953z"/><path d="m915.32 235.22v-60.926h9.6108v60.926z"/><path d="m955.54 174.29h8.4094l24.027 60.926h-10.126l-6.4358-16.561h-23.512l-6.35 16.561h-10.211zm13.987 37.242-9.7824-26.172-10.126 26.172z"/><path d="m1004.2 192.31v42.905h-9.6108v-60.926h7.5513l34.839 43.935v-43.849h9.6966v60.84h-7.9804z"/></g><g fill="url(#linearGradient1052)" stroke-width="4.7575" aria-label="CHILDREN"><path d="m516.04 314.05q0-12.179 4.5672-24.168 4.5672-12.179 13.321-21.694t21.314-15.414q12.56-5.8993 28.545-5.8993 19.03 0 32.922 8.1829 14.082 8.1829 20.933 21.314l-23.978 16.746q-2.2836-5.3284-5.8993-8.7538-3.4254-3.6157-7.612-5.709-4.1866-2.2836-8.5635-3.0448-4.3769-0.9515-8.5635-0.9515-8.9441 0-15.605 3.6157-6.6605 3.6157-11.037 9.3247-4.3769 5.709-6.4702 12.94-2.0933 7.2314-2.0933 14.653 0 7.9926 2.4739 15.414 2.4739 7.4217 7.0411 13.131 4.7575 5.709 11.228 9.1344 6.6605 3.2351 14.843 3.2351 4.1866 0 8.5635-0.9515 4.5672-1.1418 8.5635-3.2351 4.1866-2.2836 7.612-5.709 3.4254-3.6157 5.5187-8.7538l25.5 15.034q-3.0448 7.4217-9.1344 13.321-5.8993 5.8993-13.702 9.8956-7.8023 3.9963-16.556 6.0896t-17.127 2.0933q-14.653 0-27.023-5.8993-12.179-6.0896-21.123-15.985-8.7538-9.8956-13.702-22.455-4.7575-12.56-4.7575-25.5z"/><path d="m763.94 247.63v135.11h-31.209v-55.377h-53.855v55.377h-31.209v-135.11h31.209v52.333h53.855v-52.333z"/><path d="m782.65 382.75v-135.11h31.209v135.11z"/><path d="m832.89 382.75v-135.11h31.209v107.71h65.463v27.403z"/><path d="m937.4 382.75v-135.11h50.43q16.746 0 29.306 5.3284t20.933 14.463q8.5635 9.1344 12.75 21.504 4.3769 12.179 4.3769 26.071 0 15.414-4.7575 27.974-4.7575 12.37-13.702 21.314-8.7538 8.7538-21.314 13.702-12.37 4.7575-27.594 4.7575zm86.016-67.747q0-8.9441-2.4739-16.176-2.2836-7.4217-6.8508-12.75-4.5672-5.3284-11.228-8.1829-6.6605-2.8545-15.034-2.8545h-19.22v80.307h19.22q8.5635 0 15.224-3.0448t11.037-8.3732q4.5672-5.5187 6.8508-12.75 2.4739-7.4217 2.4739-16.176z"/><path d="m1066.8 382.75v-135.11h60.896q9.515 0 17.508 3.9963 8.1829 3.9963 14.082 10.467 5.8993 6.4702 9.1344 14.653 3.4254 8.1829 3.4254 16.556 0 6.2799-1.5224 12.179-1.5224 5.709-4.3769 10.847-2.8545 5.1381-7.0411 9.3247-3.9963 3.9963-9.1344 6.8508l29.687 50.239h-35.206l-25.881-43.579h-20.362v43.579zm31.209-70.792h28.545q5.5188 0 9.5151-5.1381 3.9963-5.3284 3.9963-13.511 0-8.3732-4.5672-13.321t-9.8957-4.9478h-27.594z"/><path d="m1282.2 355.34v27.403h-94.96v-135.11h93.247v27.403h-62.038v26.261h53.284v25.31h-53.284v28.735z"/><path d="m1325.6 305.48v77.262h-31.209v-135.11h24.358l62.989 79.355v-79.355h31.209v135.11h-25.12z"/></g><g transform="matrix(-.11266 0 0 .11266 1382.9 194.76)"><path d="m468.53 6.592c-1.649-3.989-5.54-6.591-9.856-6.592-413.87 0-458.67 171.56-458.67 245.33 0 95.701 72.875 160 181.33 160 136.98 0 165.68-130.35 181.08-200.38 14.973-71.292 51.151-136.39 103.79-186.75 3.047-3.044 3.965-7.622 2.326-11.605z" fill="#4caf50"/><path d="m10.671 469.33c-5.891 0-10.667-4.776-10.667-10.667 0-63.424 109.97-266.92 283.35-350.93 5.302-2.568 11.682-0.353 14.251 4.949 2.568 5.302 0.353 11.682-4.949 14.251-175.08 84.843-271.32 281.88-271.32 331.73 0 5.891-4.775 10.666-10.666 10.666z" fill="#388e3c"/></g><g transform="matrix(.066441 0 0 .066441 1327.1 243.93)"><path d="m468.53 6.592c-1.649-3.989-5.54-6.591-9.856-6.592-413.87 0-458.67 171.56-458.67 245.33 0 95.701 72.875 160 181.33 160 136.98 0 165.68-130.35 181.08-200.38 14.973-71.292 51.151-136.39 103.79-186.75 3.047-3.044 3.965-7.622 2.326-11.605z" fill="#4caf50"/><path d="m10.671 469.33c-5.891 0-10.667-4.776-10.667-10.667 0-63.424 109.97-266.92 283.35-350.93 5.302-2.568 11.682-0.353 14.251 4.949 2.568 5.302 0.353 11.682-4.949 14.251-175.08 84.843-271.32 281.88-271.32 331.73 0 5.891-4.775 10.666-10.666 10.666z" fill="#388e3c"/></g><g transform="matrix(.0097882 .098305 -.098305 .0097882 1377.8 280.86)"><path d="m468.53 6.592c-1.649-3.989-5.54-6.591-9.856-6.592-413.87 0-458.67 171.56-458.67 245.33 0 95.701 72.875 160 181.33 160 136.98 0 165.68-130.35 181.08-200.38 14.973-71.292 51.151-136.39 103.79-186.75 3.047-3.044 3.965-7.622 2.326-11.605z" fill="#4caf50"/><path d="m10.671 469.33c-5.891 0-10.667-4.776-10.667-10.667 0-63.424 109.97-266.92 283.35-350.93 5.302-2.568 11.682-0.353 14.251 4.949 2.568 5.302 0.353 11.682-4.949 14.251-175.08 84.843-271.32 281.88-271.32 331.73 0 5.891-4.775 10.666-10.666 10.666z" fill="#388e3c"/></g></svg>
